<?xml version="1.0" encoding="utf-8"?>
<!-- Generator: Adobe Illustrator 15.0.0, SVG Export Plug-In  -->
<!DOCTYPE svg [
	<!ENTITY ns_flows "http://ns.adobe.com/Flows/1.0/">
]>
<svg version="1.2" baseProfile="tiny"
	 xmlns="http://www.w3.org/2000/svg" xmlns:xlink="http://www.w3.org/1999/xlink" xmlns:a="http://ns.adobe.com/AdobeSVGViewerExtensions/3.0/"
	 x="0px" y="0px" width="150px" height="50px" viewBox="-0.942 -0.591 150 50" overflow="visible" xml:space="preserve">
<defs>
</defs>
<path fill="#00ACD9" d="M105.692,45.293c-0.281-0.248-1.043-0.173-1.623-0.188c-1.363-0.037-2.48,0.043-3.752,0
	c-0.638-0.021-1.313,0.15-1.853-0.093c0.106-1.951-0.029-3.968,0.046-5.986c0.017-0.462,0.158-0.911,0.139-1.356
	c-0.054-1.296-0.036-2.811-0.093-4.163c-0.06-1.437-0.014-2.883-0.046-4.115c-0.01-0.371-0.052-0.731-0.046-1.076
	c0.007-0.682-0.012-1.397,0.23-2.011c1.318-0.113,2.965,0.328,4.123-0.047c0.332-0.878,0.104-2.347,0.094-3.368
	c-1.229-0.659-3.052,0.084-4.401-0.047c-0.263-3.981-0.077-7.765-0.14-11.646c-0.037-2.353-0.249-4.747-0.046-7.109
	c1.063-0.204,2.411-0.048,3.475-0.047c0.928,0,3.102,0.284,3.568-0.187c0.307-0.312,0.218-1.154,0.23-1.685
	c0.015-0.562,0.039-1.414-0.23-1.683c-0.396-0.396-1.454-0.214-2.317-0.187c-2.463,0.077-4.486,0.012-6.486,0.047
	c-0.898,0.015-1.822,0.014-2.132,0.467C94.05,1.375,94.307,2.669,94.34,3.34c0.147,2.977,0.017,6.031,0.092,9.073
	c0.015,0.58,0.145,1.152,0.14,1.731c-0.024,3.098,0.064,6.803,0.092,9.775c0.019,1.865,0.153,3.664,0.14,5.472
	c-0.014,1.801-0.068,3.758-0.047,5.425c0.006,0.422-0.044,0.812-0.046,1.216c-0.002,0.363,0.143,0.727,0.141,1.076
	c-0.004,0.236-0.144,0.634-0.141,0.936c0.014,1.146,0.176,2.652,0.141,3.928c-0.05,1.676-0.121,3.917-0.048,5.659
	c0.021,0.511,0.163,1.131,0.277,1.264c0.407,0.473,2.015,0.216,2.92,0.188c2.132-0.068,3.483-0.006,5.374,0
	c0.685,0.001,2.23,0.001,2.502-0.422c0.244-0.38,0.114-1.181,0.093-1.729C105.947,46.346,105.976,45.543,105.692,45.293z"/>
<path fill="#00ACD9" d="M91.66,43.01c0.016-0.799,0.008-1.698,0-2.572c-0.044-4.141-0.011-7.964,0-11.833
	c0.002-0.8-0.12-1.721-0.092-2.526c0.009-0.27,0.139-0.586,0.139-0.748c-0.002-0.201-0.128-0.403-0.139-0.608
	c-0.053-0.942,0.052-1.884,0.046-2.806c-0.008-1.107-0.021-2.228,0-3.321c0.051-2.749-0.099-5.328-0.046-7.999
	c0.027-1.488,0.077-3.176-0.095-4.35c0.214-0.487,0.045-1.27,0.047-1.964c0.003-0.698,0.138-1.599,0.14-2.338
	c0-0.461-0.007-1.319-0.232-1.543c-0.196-0.195-0.709-0.2-1.019-0.188c-0.646,0.028-1.496-0.006-1.946,0.188
	c-0.237,0.353-0.172,1.886-0.14,2.853c0.063,1.825,0.142,3.604,0.232,5.472c0.061,1.271,0.106,2.572,0.186,3.648
	c0.17,2.307,0.045,4.829,0.139,7.109c0.067,1.643-0.018,3.277,0.046,4.863c0.035,0.878,0.189,1.718,0.232,2.527
	c0.027,0.506-0.127,0.969-0.14,1.449c-0.021,0.73,0.314,1.623-0.046,2.199c-0.28-0.434-0.148-0.92-0.231-1.404
	c-0.124-0.725-0.507-1.438-0.603-2.198c-0.08-0.631-0.199-0.94-0.279-1.402c-0.246-1.438-0.544-3.047-0.832-4.444
	c-0.093-0.446-0.105-0.901-0.186-1.356c-0.046-0.261-0.227-0.488-0.278-0.748c-0.122-0.611-0.197-1.242-0.325-1.871
	c-0.532-2.63-0.901-5.238-1.436-7.904c-0.308-1.539-0.473-3.083-0.788-4.537c-0.116-0.533-0.112-1.088-0.232-1.591
	c-0.054-0.229-0.206-0.434-0.276-0.701c-0.191-0.714-0.172-1.642-0.742-2.058c-1.035,0.003-2.356-0.207-3.243,0.14
	c-0.229,2.631,0.077,5.013,0.046,7.436c-0.019,1.537-0.012,3.249,0.046,4.63c0.029,0.683-0.172,1.352-0.139,2.01
	c0.011,0.218,0.13,0.436,0.139,0.656c0.062,1.437-0.211,2.899-0.092,4.303c0.019,0.216,0.129,0.397,0.14,0.608
	c0.012,0.275-0.081,0.564-0.094,0.841c-0.066,1.58-0.019,3.272,0,4.911c0.044,3.517,0.06,7.314,0.094,10.804
	c0.005,0.604-0.118,1.201-0.094,1.776c0.023,0.553,0.167,1.021,0.139,1.544c-0.032,0.652-0.032,1.25-0.045,1.871
	c-0.011,0.412-0.147,0.842-0.14,1.263c0.013,0.717,0.207,1.407,0.185,2.105c-0.012,0.407-0.125,0.802-0.139,1.215
	c-0.03,0.926-0.084,1.835,0.187,2.62c0.402,0.274,1.116,0.098,1.667,0.093c0.388-0.002,0.805,0.172,1.065-0.047
	c0.317-0.267,0.136-0.824,0.14-1.402c0.007-0.938,0.143-1.928,0.139-2.946c-0.006-1.942-0.105-3.909-0.093-5.754
	c0.003-0.348,0.101-0.688,0.093-1.027c-0.058-2.405-0.205-4.91-0.185-7.344c0.009-1.114,0.085-2.287,0-3.367
	c-0.021-0.267-0.122-0.52-0.14-0.795c-0.145-2.31-0.013-4.733-0.094-7.109c-0.036-1.101-0.034-2.203,0-3.321
	c0.03-0.935-0.063-1.879,0.187-2.667c0.214,0.318,0.194,0.71,0.278,1.076c0.085,0.37,0.208,0.749,0.277,1.123
	c0.301,1.616,0.673,3.167,0.927,4.677c0.204,1.218,0.382,2.454,0.603,3.554c0.41,2.045,0.758,4.086,1.205,6.034
	c0.185,0.806,0.185,1.66,0.369,2.433c0.152,0.625,0.354,1.211,0.464,1.823c0.116,0.644,0.149,1.286,0.279,1.917
	c0.084,0.419,0.396,0.867,0.462,1.31c0.041,0.27-0.036,0.56,0,0.843c0.097,0.729,0.412,1.47,0.557,2.245
	c0.3,1.604,0.673,3.154,0.927,4.723c0.13,0.799,0.434,1.551,0.556,2.292c0.085,0.514-0.003,1.146,0.23,1.45
	c0.332,0.427,1.676,0.44,1.994-0.047c0.217-0.331,0.059-1.277,0.047-2.058C91.684,45.351,91.64,43.973,91.66,43.01z"/>
<path fill="#00ACD9" d="M123.618,0.164c-0.312,0.667-0.231,1.421-0.231,2.105c0,0.642-0.187,1.294-0.187,1.964
	c0,2.089-0.133,4.161-0.185,6.313c-0.054,2.234-0.336,4.676-0.463,6.595c-0.15,2.26-0.227,4.521-0.556,6.594
	c-0.326-0.432-0.183-0.906-0.232-1.402c-0.108-1.099-0.408-2.24-0.557-3.368c-0.282-2.159-0.564-4.223-0.741-6.361
	c-0.049-0.598-0.138-1.167-0.231-1.73c-0.551-3.279-0.845-6.811-1.206-10.383c-0.375-0.467-1.309-0.28-2.038-0.281
	c-0.466-0.001-1.17-0.155-1.482,0.188c-0.177,0.192-0.204,1.32-0.232,1.871c-0.042,0.833-0.131,1.421-0.139,2.104
	c-0.045,3.891-0.49,8.292-0.649,12.301c-0.066,1.688-0.205,3.152-0.324,4.911c-0.061,0.901,0.012,1.762-0.277,2.433
	c-0.298-0.582-0.225-1.478-0.324-2.433c-0.068-0.651-0.294-1.627-0.371-2.385c-0.057-0.559-0.35-2.092-0.093-2.432
	c0.176-0.232,0.199,0.042,0.418,0c-0.921-0.554-0.74-2.331-0.788-3.649c-0.036-0.979-0.305-2.126-0.417-3.087
	c-0.252-2.158-0.435-4.364-0.649-6.221c-0.066-0.588-0.228-1.206-0.277-1.823c-0.048-0.59,0.053-1.301-0.418-1.685
	c-1.372-0.018-2.811-0.055-3.659,0.375c0.117,1.358,0.355,3.09,0.463,4.584c0.186,2.555,0.757,5.098,0.927,7.717
	c0.06,0.911,0.222,1.795,0.324,2.713c0.279,2.488,0.458,5.188,0.788,7.53c0.069,0.495,0.088,0.991,0.139,1.496
	c0.245,2.406,0.731,4.985,0.974,7.576c0.173,1.862,0.368,3.423,0.556,5.239c0.323,3.128,0.719,5.914,1.019,9.026
	c0.089,0.914,0.08,2.469,0.464,2.712c0.601,0.381,2.181-0.154,2.734-0.093c0.376-1.051,0.273-2.234,0.323-3.368
	c0.117-2.59,0.382-5.012,0.463-7.389c0.041-1.147,0.106-2.312,0.14-3.461c0.067-2.331,0.31-4.617,0.464-6.876
	c0.021-0.315-0.057-0.63-0.046-0.935c0.033-0.983,0.234-1.956,0.323-2.9c0.056-0.577,0.04-1.159,0.093-1.73
	c0.056-0.614,0.161-1.213,0.231-1.825c0.416,1.634,0.47,3.559,0.742,5.285c0.117,0.75,0.167,1.519,0.231,2.291
	c0.284,3.419,0.784,7.396,1.111,11.038c0.066,0.727,0.067,1.495,0.186,2.199c0.041,0.238,0.203,0.589,0.232,0.935
	c0.101,1.192,0.269,2.071,0.417,3.367c0.086,0.743,0.172,2.846,0.603,3.228c0.452,0.4,1.691,0.153,2.271,0
	c0.239-0.472,0.184-1.042,0.231-1.59c0.15-1.752,0.236-3.665,0.37-5.519c0.079-1.094,0.253-2.203,0.324-3.32
	c0.224-3.496,0.478-6.951,0.603-10.384c0.392-1.773,0.24-3.761,0.417-5.706c0.047-0.51,0.22-0.986,0.231-1.497
	c0.006-0.258-0.065-0.529-0.046-0.795c0.311-4.305,0.614-8.825,0.833-13.095c0.098-1.886,0.386-3.693,0.464-5.332
	c0.025-0.516,0.06-1.044-0.093-1.31C126.332-0.355,124.45,0.145,123.618,0.164z"/>
<path fill="#00ACD9" d="M141.715,39.775c-0.04-1.148,0.107-2.354,0-3.461c-0.022-0.238-0.118-0.462-0.139-0.701
	c-0.1-1.168,0.052-2.292,0.046-3.414c-0.008-1.796-0.334-3.484-0.787-4.865c-0.218-0.668-0.368-1.347-0.603-1.917
	c-0.221-0.536-0.586-1.021-0.835-1.544c-0.74-1.561-2.134-2.799-3.335-3.79c-0.683-1.206-2.131-2.122-2.779-3.553
	c-0.163-0.36-0.438-0.876-0.51-1.31c-0.071-0.43,0.002-0.922-0.047-1.357c-0.023-0.208-0.129-0.413-0.14-0.607
	c-0.011-0.217,0.061-0.435,0.047-0.654c-0.069-1.132-0.326-2.272-0.277-3.415c0.024-0.583,0.139-1.188,0.185-1.777
	c0.09-1.156,0.084-2.17,0.464-2.993c0.458-0.577,1.502-0.941,2.501-0.749c0.699,0.135,1.554,1.178,1.762,1.73
	c0.209,0.557,0.223,1.414,0.277,2.152c0.058,0.764,0.154,1.583,0.186,2.291c0.065,1.514-0.071,3.04,0.139,4.303
	c0.349,0.175,0.923,0.086,1.438,0.046c0.438-0.033,1.191,0.042,1.435-0.14c0.255-0.19,0.295-1.289,0.279-1.684
	c-0.044-1.165-0.149-2.341-0.186-3.508c-0.036-1.17,0.045-2.393-0.187-3.507c-0.088-0.432-0.355-1.11-0.556-1.59
	c-0.4-0.971-0.951-1.651-1.621-2.198c-0.203-0.167-0.437-0.415-0.603-0.515c-0.721-0.436-2.277-0.497-3.243-0.468
	c-1.564,0.048-2.837,0.535-3.707,1.403c-0.768,0.767-1.104,1.229-1.389,2.386c-0.108,0.438-0.279,0.944-0.325,1.309
	c-0.219,1.753-0.064,3.513-0.047,5.099c0.048,3.928,0.64,7.352,2.734,9.868c0.278,0.334,0.669,0.556,0.973,0.889
	c0.639,0.699,1.195,1.26,1.808,1.964c0.292,0.338,0.722,0.584,0.973,0.935c0.17,0.238,0.316,0.553,0.51,0.842
	c0.691,1.038,1.438,2.473,1.761,3.788c0.377,1.544-0.036,3.216,0.14,5.145c0.233,2.588,0.318,5.541,0.093,8.092
	c-0.048,0.529-0.033,1.185-0.187,1.73c-0.234,0.833-1.053,1.351-1.992,1.591c-1.036,0.265-1.365,0.041-2.132-0.28
	c-0.362-0.619-0.823-1.146-0.925-1.965c-0.101-0.813-0.073-1.687-0.095-2.574c-0.017-0.734-0.155-1.49-0.139-2.242
	c0.059-2.444,0.079-5.035,0.047-7.344c-0.857-0.013-2.909-0.389-3.243,0.232c-0.074,0.138-0.087,0.674-0.093,1.076
	c-0.01,0.644,0.112,1.234,0.14,1.871c0.057,1.346-0.063,3.185,0,4.63c0.097,2.246,0.285,5.143,0.973,6.829
	c0.64,1.572,1.809,2.864,3.846,2.946c1.417,0.058,3.225,0.103,4.309-0.421c0.233-0.113,0.505-0.471,0.834-0.702
	c0.334-0.234,0.69-0.431,0.881-0.7c0.46-0.656,0.741-1.621,1.019-2.479C141.836,43.122,141.778,41.542,141.715,39.775z"/>
<path fill="#343663" d="M62.048,36.066c-0.017-0.79,0.118-1.509,0.093-2.198c-0.015-0.431-0.133-0.881-0.14-1.263
	c-0.005-0.257,0.092-0.521,0.092-0.796c0.006-1.461-0.278-3.022-0.277-4.396c0-0.607,0.196-1.095-0.139-1.591
	c0.264-0.799,0.041-1.651,0.093-2.479c0.015-0.227,0.125-0.425,0.139-0.655c0.127-1.94-0.06-4,0.046-5.986
	c0.038-0.698-0.177-1.393-0.139-2.058c0.014-0.224,0.132-0.437,0.139-0.655c0.008-0.229-0.079-0.467-0.091-0.701
	c-0.099-1.743-0.061-3.651-0.047-5.286c0.004-0.555,0.102-1.104,0.093-1.637c-0.007-0.387-0.187-0.782-0.184-1.169
	c0.006-1.521,0.156-2.992,0.045-4.49c-0.231-0.666-1.22-0.506-2.039-0.468c-0.448,0.021-1.271,0.05-1.807,0.047
	c-0.766-0.005-1.989-0.183-2.271,0.28c-0.163,0.269-0.048,0.826-0.046,1.216c0.01,1.347-0.258,2.808-0.278,4.351
	c-0.017,1.503-0.274,3.049-0.324,4.583c-0.029,0.912-0.123,1.761-0.185,2.666c-0.051,0.714-0.237,1.417-0.279,2.104
	c-0.043,0.713,0.048,1.432,0,2.152c-0.03,0.461-0.224,0.913-0.231,1.355c-0.016,0.86-0.15,1.493-0.187,2.292
	c-0.084,1.924-0.182,3.88-0.277,5.752c-0.056,1.094-0.34,2.134-0.417,3.229c-0.02,0.291,0.066,0.642-0.138,0.888
	c-0.283-2.48-0.481-5.128-0.741-7.482c-0.484-4.374-0.562-8.477-0.973-12.675c-0.341-3.466-0.936-6.866-1.112-10.384
	c-0.795-0.41-2.622-0.349-3.798-0.326c-0.423,0.007-0.877-0.066-1.159,0.046c-0.712,0.283-0.457,1.537-0.417,2.339
	c0.073,1.521-0.032,3.214,0,4.957c0.064,3.687,0.138,6.521,0.138,9.962c0,3.614,0.036,7.27,0.093,10.852
	c0.057,3.591,0.062,7.079,0.092,10.477c0.021,2.234,0.139,4.484,0.139,6.734c0,0.846-0.231,2.742,0.093,3.18
	c0.255,0.346,2.763,0.578,3.196,0.141c0.516-0.521,0.097-2.513,0.093-3.414c0-0.212,0.095-0.396,0.093-0.608
	c-0.013-1.169-0.16-2.618-0.232-3.741c-0.087-1.354,0.035-2.716-0.045-4.022c-0.042-0.662-0.238-1.416-0.279-2.104
	c-0.051-0.877,0.084-1.782,0.046-2.665c-0.038-0.87-0.168-1.721-0.232-2.574c-0.084-1.135,0.108-2.098,0.093-3.085
	c-0.003-0.266-0.121-0.521-0.139-0.796c-0.119-1.86,0.044-3.863,0-5.798c-0.068-2.897,0.005-5.831,0-8.7
	c0-0.503-0.284-1.042,0.093-1.498c0.214,0.299,0.243,0.717,0.279,1.076c0.221,2.286,0.527,4.487,0.833,6.642
	c0.132,0.924,0.104,1.857,0.232,2.758c0.122,0.854,0.312,1.677,0.417,2.526c0.096,0.778,0.089,1.574,0.187,2.339
	c0.096,0.764,0.06,1.538,0.184,2.245c0.041,0.231,0.162,0.43,0.185,0.654c0.083,0.788,0.078,1.594,0.14,2.386
	c0.061,0.788,0.145,1.591,0.231,2.386c0.169,1.556,0.227,3.147,0.418,4.725c0.124,1.025,0.313,2.068,0.416,3.133
	c0.218,2.261,0.426,4.345,0.649,6.595c0.049,0.498,0.052,1.181,0.23,1.402c0.195,0.239,1.928,0.575,2.318,0.233
	c0.292-0.255,0.107-0.981,0.092-1.496c-0.028-0.863,0.098-1.646,0.093-2.432c-0.006-1.093-0.048-2.15,0-3.321
	c0.025-0.641,0.046-1.302,0.046-1.964c0-2.791,0.393-5.502,0.509-8.045c0.066-1.433-0.101-2.971,0.187-4.115
	c0.054-0.22,0.229-0.448,0.277-0.702c0.237-1.205,0.092-2.375,0.186-3.554c0.045-0.554,0.121-1.126,0.185-1.684
	c0.232-2.004,0.463-4.301,0.649-5.94c0.135-1.199,0.116-2.418,0.277-3.602c0.081-0.596,0.151-1.2,0.232-1.777
	c0.082-0.581-0.009-1.202,0.278-1.731c0.272,0.68-0.069,1.438,0.092,2.245c0.128,0.213-0.323,0.188-0.323,0.422
	c0.682,0.284,0.417,1.138,0.417,2.058c0,0.518,0.043,1.072,0.047,1.59c0.002,1.419-0.026,2.691,0.046,3.976
	c0.246,4.4,0.031,9.655,0.184,14.171c0.012,0.346-0.127,0.685-0.139,1.029c-0.034,1.003,0.167,2.047,0.185,2.993
	c0.006,0.261-0.097,0.506-0.091,0.748c0.011,0.554,0.184,1.115,0.185,1.685c0.004,2.459,0.073,4.498,0.093,7.155
	c0.005,0.77-0.107,1.803,0.186,2.151c0.267,0.319,1.053,0.207,1.622,0.188c0.694-0.024,1.397,0.103,1.667-0.234
	c0.212-0.264,0.067-1.242,0.047-2.244C62.208,43.113,62.123,39.527,62.048,36.066z"/>
<path fill="#343663" d="M42.473,38.308c0.12-3.398,0.02-6.908,0-10.384c-0.006-1.196-0.164-2.352-0.092-3.46
	c0.07-1.071,0.011-2.133,0-3.18c-0.023-2.52-0.021-5.046-0.138-7.623c-0.122-2.682,0.094-5.961-0.232-8.419
	c-0.166-1.253-0.752-2.373-1.389-3.181c-0.661-0.838-1.778-1.631-3.012-1.73c-0.708-0.057-2.264-0.033-2.688,0
	c-0.457,0.035-1.269,0.133-1.761,0.374c-0.374,0.183-1.317,0.999-1.761,1.589c-1.283,1.716-1.005,4.966-0.973,7.39
	c0.047,3.413,0.124,6.788,0.094,10.056c-0.019,1.893-0.059,3.766,0.046,5.565c0.105,1.806-0.04,3.585,0,5.333
	c0.041,1.838-0.032,3.68,0.046,5.565c0.017,0.397,0.192,0.993,0.186,1.31c-0.006,0.288-0.171,0.59-0.186,0.889
	c-0.042,0.953,0.228,2.159,0.186,3.32c-0.068,1.845,0.171,3.466,0.834,4.724c0.34,0.644,1.278,1.595,1.853,1.918
	c1.158,0.65,3.143,0.681,4.634,0.748c0.028,0.002,0.064,0.005,0.092,0c2.118-0.343,3.638-2.064,4.124-3.975
	C42.8,43.305,42.392,40.64,42.473,38.308z M38.442,42.563c-0.055,0.86,0.03,1.794-0.37,2.573c-0.217,0.155-0.547,0.195-0.742,0.373
	c-1.203-0.003-2.48-0.172-2.873-1.122c-0.064-0.156-0.073-0.521-0.138-0.889c-0.061-0.335-0.21-0.674-0.232-0.889
	c-0.07-0.678,0.018-1.496,0.047-2.245c0.059-1.602,0.014-3.134,0-4.677c-0.008-0.729,0.097-1.457,0.092-2.151
	c-0.048-5.564-0.37-12.099-0.371-17.726c0-1.687-0.2-3.416-0.092-4.958c0.056-0.803,0.101-1.674,0.138-2.525
	c0.038-0.847-0.086-1.743,0.048-2.479c0.168-0.935,0.812-1.608,1.62-1.731c0.661-0.099,1.589,0.154,1.9,0.516
	c0.477,0.555,0.443,1.508,0.557,2.431c0.039,0.312,0.156,0.603,0.185,0.89c0.187,1.833,0.098,3.806,0.093,5.707
	c-0.004,0.955,0.034,1.897,0,2.852c-0.092,2.576,0.204,5.501,0.092,8.373c-0.095,2.447,0.002,4.887,0.046,7.155
	c0.032,1.572,0.073,3.087,0.093,4.584c0.014,1.082-0.05,2.141,0,3.18C38.579,40.716,38.501,41.651,38.442,42.563z"/>
<path fill="#343663" d="M76.894,38.308c0.119-3.398,0.019-6.908,0-10.384c-0.007-1.196-0.166-2.352-0.093-3.46
	c0.069-1.071,0.01-2.133,0-3.18c-0.025-2.52-0.022-5.046-0.139-7.623c-0.121-2.682,0.094-5.961-0.232-8.419
	c-0.166-1.253-0.752-2.373-1.39-3.181c-0.66-0.838-1.778-1.631-3.012-1.73c-0.708-0.057-2.263-0.033-2.688,0
	c-0.457,0.035-1.269,0.133-1.76,0.374c-0.374,0.183-1.318,0.999-1.761,1.589c-1.284,1.716-1.006,4.966-0.973,7.39
	c0.046,3.413,0.125,6.788,0.094,10.056c-0.019,1.893-0.06,3.766,0.045,5.565c0.106,1.806-0.039,3.585,0,5.333
	c0.042,1.838-0.03,3.68,0.047,5.565c0.016,0.397,0.192,0.993,0.185,1.31c-0.006,0.288-0.172,0.59-0.185,0.889
	c-0.042,0.953,0.228,2.159,0.185,3.32c-0.067,1.845,0.171,3.466,0.834,4.724c0.34,0.644,1.278,1.595,1.854,1.918
	c1.156,0.65,3.143,0.681,4.634,0.748c0.028,0.002,0.064,0.005,0.092,0c2.118-0.343,3.638-2.064,4.124-3.975
	C77.22,43.305,76.812,40.64,76.894,38.308z M72.862,42.563c-0.054,0.86,0.031,1.794-0.37,2.573
	c-0.218,0.155-0.547,0.195-0.742,0.373c-1.203-0.003-2.48-0.172-2.872-1.122c-0.065-0.156-0.073-0.521-0.139-0.889
	c-0.061-0.335-0.21-0.674-0.232-0.889c-0.069-0.678,0.019-1.496,0.048-2.245c0.058-1.602,0.014-3.134,0-4.677
	c-0.008-0.729,0.098-1.457,0.091-2.151c-0.047-5.564-0.369-12.099-0.371-17.726c0-1.687-0.2-3.416-0.093-4.958
	c0.057-0.803,0.1-1.674,0.139-2.525c0.039-0.847-0.086-1.743,0.048-2.479c0.168-0.935,0.812-1.608,1.62-1.731
	c0.661-0.099,1.588,0.154,1.9,0.516c0.477,0.555,0.443,1.508,0.557,2.431c0.038,0.312,0.156,0.603,0.185,0.89
	c0.187,1.833,0.099,3.806,0.092,5.707c-0.002,0.955,0.034,1.897,0,2.852c-0.092,2.576,0.204,5.501,0.092,8.373
	c-0.094,2.447,0.002,4.887,0.046,7.155c0.033,1.572,0.073,3.087,0.093,4.584c0.014,1.082-0.05,2.141,0,3.18
	C73,40.716,72.921,41.651,72.862,42.563z"/>
<path fill="#343663" d="M12.326,8.188c-0.002-0.322,0.087-0.615,0.046-0.935c-0.038-0.302-0.122-0.587-0.139-0.889
	c-0.04-0.688-0.024-1.392-0.139-1.963c-0.19-0.951-0.818-2.212-1.297-2.76C10.42,1.21,9.522,0.584,8.805,0.472
	C8.324,0.396,7.771,0.366,7.277,0.331c-1.251-0.088-2.4,0.011-3.708,0C2.617,0.323,1.515,0.112,0.65,0.237
	c-0.846,0.122-0.638,1.047-0.602,1.824c0.026,0.56-0.062,1.221-0.046,1.684C0.064,5.549,0.07,7.542,0.141,9.451
	c0.115,3.099-0.033,6.955,0,10.242c0.02,1.908,0.085,3.646,0.092,5.519c0.011,2.167,0.013,4.331,0,6.455
	c-0.002,0.549,0,1.102,0,1.637c0.002,0.512,0.06,1.009,0.047,1.496c-0.113,4.352,0.208,8.585,0.048,12.815
	c-0.02,0.488-0.146,1.01,0.046,1.262c0.264,0.352,1.263,0.344,1.946,0.328c0.595-0.014,1.572,0.075,1.945-0.141
	c0.017-4.917-0.051-10.538-0.139-15.995c-0.014-0.913,0.105-1.827,0.092-2.713c-0.015-1.35-0.24-2.673-0.045-3.974
	c2.2,0.123,4.292,0.138,5.838-0.749c0.758-0.435,1.426-1.308,1.806-2.105c0.705-1.475,0.503-3.685,0.649-5.659
	c0.099-1.333,0.117-2.71,0.047-4.023C12.414,12.04,12.338,10.036,12.326,8.188z M8.805,20.536c-0.143,0.725-0.43,1.821-0.879,2.197
	c-0.22,0.184-1.396,0.528-1.761,0.561c-0.191,0.017-0.349-0.067-0.51-0.047c-0.807,0.103-1.393,0.533-1.946,0.094
	c-0.268-2.439-0.039-5.227-0.047-7.623c-0.003-0.973-0.096-1.981-0.045-3.041c0.052-1.112-0.161-2.246-0.093-3.32
	C3.574,8.562,3.74,7.829,3.708,7.066c-0.03-0.748-0.118-1.525-0.186-2.245c-0.034-0.365-0.306-0.819,0-1.169
	c0.387-0.032,1.082-0.061,1.807,0c0.238,0.019,0.487,0.161,0.742,0.186C6.694,3.9,7.148,3.854,7.508,4.12
	c0.29,0.214,0.725,0.894,0.927,1.449c0.283,0.778,0.143,1.732,0.139,2.573C8.57,8.826,8.737,9.575,8.759,10.339
	c0.021,0.674-0.081,1.375-0.046,2.058c0.049,0.964,0.186,1.948,0.186,2.9c0,0.207-0.091,0.446-0.093,0.654
	C8.791,17.552,9.075,19.165,8.805,20.536z"/>
<path fill="#343663" d="M26.39,38.254c-0.25-1.692-0.513-3.384-0.695-5.005c-0.062-0.552-0.266-1.027-0.371-1.543
	c-0.226-1.122-0.205-2.244-0.37-3.274c-0.055-0.332-0.259-0.609-0.325-0.935c-0.104-0.512-0.178-1.035-0.251-1.559
	c0.222-0.09,0.436-0.188,0.641-0.305c0.759-0.435,1.427-1.308,1.807-2.104c0.704-1.476,0.504-3.685,0.648-5.66
	c0.098-1.334,0.118-2.711,0.046-4.023c-0.098-1.807-0.174-3.811-0.185-5.659c-0.002-0.321,0.085-0.615,0.046-0.936
	c-0.039-0.302-0.122-0.586-0.139-0.888c-0.039-0.689-0.025-1.393-0.141-1.964c-0.189-0.951-0.817-2.212-1.296-2.761
	c-0.377-0.43-1.275-1.057-1.992-1.169c-0.48-0.075-1.035-0.104-1.529-0.139c-1.251-0.088-2.4,0.011-3.707,0
	c-0.954-0.008-2.056-0.219-2.918-0.094c-0.848,0.122-0.64,1.046-0.603,1.824c0.026,0.561-0.063,1.221-0.047,1.684
	c0.063,1.804,0.069,3.797,0.14,5.706c0.114,3.099-0.034,6.955,0,10.242c0.02,1.908,0.083,3.647,0.093,5.519
	c0.01,2.167,0.011,4.331,0,6.455c-0.003,0.55-0.001,1.103,0,1.637c0,0.512,0.06,1.009,0.046,1.497
	c-0.115,4.351,0.207,8.584,0.046,12.815c-0.018,0.487-0.145,1.008,0.046,1.263c0.265,0.35,1.265,0.342,1.946,0.327
	c0.595-0.015,1.574,0.074,1.946-0.142c0.017-4.918-0.051-10.537-0.139-15.993c-0.015-0.913,0.103-1.83,0.093-2.715
	c-0.017-1.349-0.241-2.673-0.046-3.974c0.608,0.033,1.206,0.057,1.789,0.057c0.162,1.579,0.344,3.117,0.556,4.518
	c0.235,1.558,0.449,3.054,0.695,4.584c0.167,1.037,0.318,2.08,0.464,3.134c0.218,1.591,0.502,3.126,0.741,4.771
	c0.074,0.509,0.252,1.005,0.325,1.496c0.057,0.392,0.058,0.736,0.139,1.123c0.072,0.351,0.168,0.72,0.231,1.075
	c0.122,0.683,0.086,1.5,0.556,2.012c0.383,0.163,1.024-0.05,1.576-0.047c0.577,0.003,1.261,0.23,1.575-0.188
	c0.221-0.294,0.026-1.313-0.092-2.011C27.226,43.931,26.837,41.278,26.39,38.254z M23.813,20.536
	c-0.143,0.726-0.432,1.821-0.881,2.198c-0.221,0.185-1.395,0.529-1.761,0.561c-0.19,0.018-0.347-0.066-0.509-0.046
	c-0.806,0.103-1.392,0.535-1.946,0.094c-0.269-2.441-0.039-5.228-0.045-7.625c-0.004-0.972-0.097-1.981-0.047-3.039
	c0.052-1.113-0.161-2.246-0.092-3.321c0.05-0.795,0.216-1.528,0.185-2.292c-0.031-0.747-0.118-1.524-0.185-2.244
	c-0.034-0.365-0.308-0.819,0-1.17c0.386-0.032,1.081-0.06,1.807,0c0.236,0.02,0.486,0.162,0.741,0.187
	c0.622,0.062,1.077,0.016,1.436,0.282c0.29,0.214,0.725,0.894,0.927,1.449c0.283,0.778,0.144,1.732,0.139,2.571
	c-0.003,0.686,0.163,1.435,0.187,2.199c0.019,0.674-0.082,1.375-0.047,2.059c0.049,0.964,0.185,1.948,0.186,2.899
	c0,0.207-0.09,0.446-0.092,0.654C23.799,17.552,24.082,19.164,23.813,20.536z"/>
</svg>
